<?xml version="1.0" encoding="utf-8"?>
<svg width="216.99963px" height="48px" viewBox="0 0 216.99963 48" version="1.1" xmlns:xlink="http://www.w3.org/1999/xlink" xmlns="http://www.w3.org/2000/svg">
  <defs>
    <path d="M0 0L170 0L170 48L0 48L0 0Z" id="path_1" />
    <path d="M0 0L159.69 0L159.69 7.26136L0 7.26136L0 0Z" id="path_2" />
    <clipPath id="clip_1">
      <use xlink:href="#path_1" clip-rule="evenodd" fill-rule="evenodd" transform="translate(0, 8.208004)" />
    </clipPath>
    <clipPath id="clip_2">
      <use xlink:href="#path_2" clip-rule="evenodd" fill-rule="evenodd" transform="translate(0, 0.605114)" />
    </clipPath>
  </defs>
  <g id="Grupo-6">
    <g id="Grupo-4" transform="translate(46.999634 0)">
      <g id="proditel" clip-path="url(#clip_1)" transform="translate(0 -8.208004)">
        <g id="pro-ditel" fill="#144579">
          <path d="M15.504 19.488Q18.096 19.488 20.4 20.472Q22.704 21.456 24.408 23.16Q26.112 24.864 27.096 27.12Q28.08 29.376 28.08 31.968Q28.08 34.608 27.096 36.912Q26.112 39.216 24.408 40.92Q22.704 42.624 20.4 43.608Q18.096 44.592 15.504 44.592Q11.952 44.592 9.6 42.6878L9.6 42.6405L12 38.256L12.048 38.304Q13.344 38.88 14.688 38.88Q16.08 38.88 17.328 38.3483Q18.576 37.8165 19.512 36.8738Q20.448 35.931 20.976 34.6744Q21.504 33.4178 21.504 31.9673Q21.504 30.5655 20.976 29.3329Q20.448 28.1003 19.512 27.1819Q18.576 26.2635 17.328 25.7318Q16.08 25.2 14.688 25.2Q13.248 25.2 12.024 25.7288Q10.8 26.2575 9.888 27.1714Q8.976 28.0853 8.448 29.3111Q7.92 30.537 7.92 31.9313L7.92 53.472L1.44 53.472L1.44 19.872L7.92 19.872L7.92 23.1053Q10.512 19.488 15.504 19.488ZM50.064 20.832L49.488 21.792L47.04 26.16L46.992 26.112Q45.408 25.2 43.584 25.2Q42.336 25.2 41.232 25.608Q40.128 26.016 39.264 26.76Q38.4 27.504 37.8 28.512Q37.2 29.52 37.008 30.672L37.008 43.872L30.48 43.872L30.48 19.872L37.008 19.872L37.008 22.992Q39.552 19.488 44.448 19.488Q47.328 19.488 50.016 20.832L50.064 20.832ZM60.816 19.488Q63.408 19.488 65.664 20.472Q67.92 21.456 69.6 23.136Q71.28 24.816 72.264 27.072Q73.248 29.328 73.248 31.872Q73.248 34.416 72.264 36.672Q71.28 38.928 69.6 40.608Q67.92 42.288 65.664 43.272Q63.408 44.256 60.816 44.256Q58.224 44.256 55.968 43.272Q53.712 42.288 52.032 40.608Q50.352 38.928 49.368 36.672Q48.384 34.416 48.384 31.872Q48.384 29.328 49.368 27.072Q50.352 24.816 52.032 23.136Q53.712 21.456 55.968 20.472Q58.224 19.488 60.816 19.488ZM60.816 38.544Q62.016 38.544 63.048 38.016Q64.08 37.488 64.872 36.552Q65.664 35.616 66.12 34.392Q66.576 33.168 66.576 31.728Q66.576 30.384 66.12 29.16Q65.664 27.936 64.872 27.048Q64.08 26.16 63.048 25.632Q62.016 25.104 60.816 25.104Q59.616 25.104 58.56 25.632Q57.504 26.16 56.712 27.048Q55.92 27.936 55.464 29.16Q55.008 30.384 55.008 31.728Q55.008 33.168 55.464 34.392Q55.92 35.616 56.712 36.552Q57.504 37.488 58.56 38.016Q59.616 38.544 60.816 38.544Z" />
        </g>
        <g transform="translate(74.20801, 0)" id="pro-ditel" fill="#FF5000">
          <path d="M27.264 10.272L27.264 43.872L20.832 43.872L20.88 31.824Q20.88 30.48 20.328 29.28Q19.776 28.08 18.888 27.192Q18 26.304 16.776 25.8Q15.552 25.296 14.16 25.296Q12.768 25.296 11.568 25.8Q10.368 26.304 9.48 27.216Q8.592 28.128 8.064 29.328Q7.536 30.528 7.536 31.92Q7.536 33.312 8.064 34.512Q8.592 35.712 9.48 36.6Q10.368 37.488 11.568 38.016Q12.768 38.544 14.16 38.544Q14.832 38.544 15.504 38.448Q16.176 38.352 16.752 38.064L16.8 38.064L16.848 38.064L19.2 42.384L19.152 42.432Q16.8 44.256 13.392 44.256Q10.8 44.256 8.544 43.296Q6.288 42.336 4.608 40.656Q2.928 38.976 1.944 36.72Q0.96 34.464 0.96 31.92Q0.96 29.376 1.944 27.12Q2.928 24.864 4.608 23.184Q6.288 21.504 8.544 20.544Q10.8 19.584 13.392 19.584Q18.288 19.584 20.88 23.232L20.88 10.272L27.264 10.272ZM30.096 43.872L30.096 19.872L36.48 19.872L36.48 43.872L30.096 43.872ZM30.096 10.272L36.48 10.272L36.48 15.888L30.096 15.888L30.096 10.272ZM56.064 22.368L56.064 27.696L52.512 27.696L49.536 22.368L56.064 22.368ZM48.72 35.664Q48.72 36.768 49.512 37.536Q50.304 38.304 51.408 38.304L56.064 38.304L56.064 43.872L51.408 43.872C50.16 43.872 48.984 43.64 47.88 43.176Q46.224 42.48 45 41.256Q43.776 40.032 43.056 38.4Q42.336 36.768 42.336 34.896L42.336 27.696L38.88 27.696L38.88 22.368L42.336 22.368L42.336 13.68L48.72 13.68L48.72 35.664ZM69.264 19.488Q71.808 19.488 74.064 20.472Q76.32 21.456 78 23.136Q79.68 24.816 80.664 27.072Q81.648 29.328 81.648 31.92Q81.648 33.312 81.36 34.608L81.312 34.704L69.12 34.704L66.048 29.808L75.168 29.808Q74.496 27.792 72.936 26.496Q71.376 25.2 69.264 25.2Q67.968 25.2 66.816 25.7261Q65.664 26.2523 64.824 27.1369Q63.984 28.0215 63.504 29.2414Q63.024 30.4613 63.024 31.896Q63.024 32.9963 63.456 34.1678Q63.888 35.3393 64.704 36.2959Q65.52 37.2525 66.672 37.8983Q67.824 38.544 69.264 38.544Q70.56 38.544 71.64 38.184Q72.72 37.824 73.68 36.576L73.728 36.528L73.824 36.576L79.392 39.0278L79.296 39.1253Q77.568 41.5455 74.904 42.9008Q72.24 44.256 69.264 44.256Q66.672 44.256 64.392 43.296Q62.112 42.336 60.432 40.656Q58.752 38.976 57.768 36.72Q56.784 34.464 56.784 31.92Q56.784 29.328 57.768 27.072Q58.752 24.816 60.432 23.136Q62.112 21.456 64.392 20.472Q66.672 19.488 69.264 19.488ZM84.096 10.272L90.432 10.272L90.432 43.872L84.048 43.872L84.096 10.272Z" />
        </g>
      </g>
    </g>
    <g id="isoTipo-4" transform="matrix(-1 0 0 1 36.149475 5.000061)">
      <g id="g144" transform="matrix(-1 0 0 -1 36.14947 40.321873)">
        <path d="M4.42313 40.3219L20.9384 40.3219C25.2606 40.3219 29.147 38.3822 31.9263 35.2583C34.5319 32.3295 36.1495 28.3313 36.1495 23.9716C36.1495 19.6113 34.5319 15.6136 31.9263 12.6849C29.147 9.55997 25.2606 7.62079 20.9384 7.62079L12.1113 7.62079L12.1113 16.0677L20.9384 16.0677C22.5501 16.0677 24.0576 16.8576 25.1891 18.1288C26.4943 19.5967 27.3039 21.6613 27.3039 23.9716C27.3039 26.2809 26.4943 28.347 25.1891 29.8144C24.0576 31.0856 22.5501 31.875 20.9384 31.875L4.42313 31.875L4.42313 40.3219Z" id="g150" fill="#FF5000" fill-rule="evenodd" stroke="none" />
        <path d="M0 0L0 21.0079C0 22.8702 0.79529 24.5616 2.07559 25.7838C3.35536 27.0069 5.1265 27.7659 7.0766 27.7659L19.7128 27.7659L19.7128 19.3185L8.84562 19.3185L8.84562 0L0 0Z" id="g154" fill="#144579" fill-rule="evenodd" stroke="none" />
      </g>
    </g>
    <g id="SOLUCIONES-INTEGRALES" clip-path="url(#clip_2)" transform="translate(56.007385 37.133472)">
      <g transform="translate(3.1269913, 0)" id="SOLUCIONES-INTEGRALES" fill="#144579">
        <path d="M3.33594 3.0277Q3.29616 2.67472 3.00781 2.47958Q2.71946 2.28445 2.28196 2.28445Q1.81214 2.28445 1.53622 2.49822Q1.2603 2.712 1.2603 3.03764Q1.2603 3.28125 1.4082 3.43413Q1.55611 3.587 1.77113 3.67401Q1.98615 3.76101 2.18501 3.81321L2.68217 3.94247Q2.92578 4.00213 3.18182 4.10529Q3.43786 4.20845 3.65661 4.37376Q3.87535 4.53906 4.01083 4.78516Q4.14631 5.03125 4.14631 5.37429Q4.14631 5.80433 3.92383 6.1424Q3.70135 6.48047 3.28125 6.67312Q2.86115 6.86577 2.26207 6.86577Q1.40696 6.86577 0.901101 6.46555Q0.395241 6.06534 0.357955 5.37429L1.12855 5.37429Q1.16335 5.78942 1.48899 5.99077Q1.81463 6.19212 2.2571 6.19212Q2.7468 6.19212 3.06623 5.96591Q3.38565 5.7397 3.38565 5.36683Q3.38565 5.14063 3.25764 4.99521Q3.12962 4.84979 2.91211 4.75657Q2.6946 4.66335 2.42116 4.59126L1.8196 4.4272Q1.20561 4.26065 0.850142 3.9375Q0.494673 3.61435 0.494673 3.08239Q0.494673 2.6424 0.73331 2.31428Q0.971946 1.98615 1.38086 1.80344Q1.78977 1.62074 2.29936 1.62074Q2.81641 1.62074 3.21289 1.8022Q3.60937 1.98367 3.83807 2.30185Q4.06676 2.62003 4.0767 3.0277L3.33594 3.0277ZM12.4858 4.2358Q12.4858 5.04865 12.1875 5.6353Q11.8892 6.22195 11.3709 6.5364Q10.8526 6.85085 10.1939 6.85085Q9.53267 6.85085 9.01438 6.5364Q8.49609 6.22195 8.1978 5.6353Q7.8995 5.04865 7.8995 4.2358Q7.8995 3.42045 8.1978 2.83505Q8.49609 2.24965 9.01438 1.93519Q9.53267 1.62074 10.1939 1.62074Q10.8526 1.62074 11.3709 1.93519Q11.8892 2.24965 12.1875 2.83505Q12.4858 3.42045 12.4858 4.2358ZM11.7251 4.2358Q11.7251 3.61435 11.525 3.18803Q11.3249 2.76172 10.9782 2.54173Q10.6314 2.32173 10.1939 2.32173Q9.75639 2.32173 9.40962 2.54173Q9.06285 2.76172 8.86275 3.18803Q8.66264 3.61435 8.66264 4.2358Q8.66264 4.85476 8.86275 5.28232Q9.06285 5.70987 9.40962 5.92986Q9.75639 6.14986 10.1939 6.14986Q10.6314 6.14986 10.9782 5.92986Q11.3249 5.70987 11.525 5.28232Q11.7251 4.85476 11.7251 4.2358ZM16.4403 6.78125L16.4403 1.69034L17.2085 1.69034L17.2085 6.12003L19.5153 6.12003L19.5153 6.78125L16.4403 6.78125ZM26.6641 1.69034L27.4347 1.69034L27.4347 5.03871Q27.4347 5.57315 27.1836 5.9858Q26.9325 6.39844 26.4776 6.6321Q26.0227 6.86577 25.4112 6.86577Q24.8022 6.86577 24.3473 6.6321Q23.8924 6.39844 23.6413 5.9858Q23.3903 5.57315 23.3903 5.03871L23.3903 1.69034L24.1584 1.69034L24.1584 4.97656Q24.1584 5.49361 24.4952 5.82919Q24.832 6.16477 25.4112 6.16477Q25.9929 6.16477 26.3285 5.82919Q26.6641 5.49361 26.6641 4.97656L26.6641 1.69034ZM35.7816 3.34588L35.006 3.34588Q34.9116 2.85121 34.5424 2.58647Q34.1733 2.32173 33.6861 2.32173Q33.2486 2.32173 32.9006 2.54297Q32.5526 2.7642 32.3525 3.19052Q32.1523 3.61683 32.1523 4.2358Q32.1523 4.85724 32.3537 5.2848Q32.555 5.71236 32.9018 5.93111Q33.2486 6.14986 33.6836 6.14986Q34.1658 6.14986 34.5362 5.88885Q34.9066 5.62784 35.006 5.14063L35.7816 5.14311Q35.6996 5.64524 35.4137 6.03054Q35.1278 6.41584 34.6829 6.63335Q34.2379 6.85085 33.6786 6.85085Q33.0174 6.85085 32.5004 6.5364Q31.9833 6.22195 31.6863 5.6353Q31.3892 5.04865 31.3892 4.2358Q31.3892 3.42045 31.6875 2.83505Q31.9858 2.24965 32.5028 1.93519Q33.0199 1.62074 33.6786 1.62074Q34.218 1.62074 34.6618 1.82457Q35.1055 2.02841 35.4 2.41495Q35.6946 2.80149 35.7816 3.34588ZM40.4695 1.69034L40.4695 6.78125L39.7014 6.78125L39.7014 1.69034L40.4695 1.69034ZM49.0103 4.2358Q49.0103 5.04865 48.712 5.6353Q48.4137 6.22195 47.8954 6.5364Q47.3771 6.85085 46.7184 6.85085Q46.0572 6.85085 45.5389 6.5364Q45.0206 6.22195 44.7223 5.6353Q44.424 5.04865 44.424 4.2358Q44.424 3.42045 44.7223 2.83505Q45.0206 2.24965 45.5389 1.93519Q46.0572 1.62074 46.7184 1.62074Q47.3771 1.62074 47.8954 1.93519Q48.4137 2.24965 48.712 2.83505Q49.0103 3.42045 49.0103 4.2358ZM48.2496 4.2358Q48.2496 3.61435 48.0495 3.18803Q47.8494 2.76172 47.5027 2.54173Q47.1559 2.32173 46.7184 2.32173Q46.2809 2.32173 45.9341 2.54173Q45.5874 2.76172 45.3873 3.18803Q45.1871 3.61435 45.1871 4.2358Q45.1871 4.85476 45.3873 5.28232Q45.5874 5.70987 45.9341 5.92986Q46.2809 6.14986 46.7184 6.14986Q47.1559 6.14986 47.5027 5.92986Q47.8494 5.70987 48.0495 5.28232Q48.2496 4.85476 48.2496 4.2358ZM57.0739 1.69034L57.0739 6.78125L56.3679 6.78125L53.7802 3.04759L53.733 3.04759L53.733 6.78125L52.9648 6.78125L52.9648 1.69034L53.6758 1.69034L56.266 5.42898L56.3132 5.42898L56.3132 1.69034L57.0739 1.69034ZM61.1925 6.78125L61.1925 1.69034L64.3842 1.69034L64.3842 2.35156L61.9606 2.35156L61.9606 3.9027L64.2177 3.9027L64.2177 4.56143L61.9606 4.56143L61.9606 6.12003L64.4141 6.12003L64.4141 6.78125L61.1925 6.78125ZM71.19 3.0277Q71.1502 2.67472 70.8619 2.47958Q70.5735 2.28445 70.136 2.28445Q69.6662 2.28445 69.3903 2.49822Q69.1143 2.712 69.1143 3.03764Q69.1143 3.28125 69.2623 3.43413Q69.4102 3.587 69.6252 3.67401Q69.8402 3.76101 70.0391 3.81321L70.5362 3.94247Q70.7798 4.00213 71.0359 4.10529Q71.2919 4.20845 71.5107 4.37376Q71.7294 4.53906 71.8649 4.78516Q72.0004 5.03125 72.0004 5.37429Q72.0004 5.80433 71.7779 6.1424Q71.5554 6.48047 71.1353 6.67312Q70.7152 6.86577 70.1161 6.86577Q69.261 6.86577 68.7551 6.46555Q68.2493 6.06534 68.212 5.37429L68.9826 5.37429Q69.0174 5.78942 69.343 5.99077Q69.6687 6.19212 70.1112 6.19212Q70.6009 6.19212 70.9203 5.96591Q71.2397 5.7397 71.2397 5.36683Q71.2397 5.14063 71.1117 4.99521Q70.9837 4.84979 70.7662 4.75657Q70.5487 4.66335 70.2752 4.59126L69.6737 4.4272Q69.0597 4.26065 68.7042 3.9375Q68.3487 3.61435 68.3487 3.08239Q68.3487 2.6424 68.5874 2.31428Q68.826 1.98615 69.2349 1.80344Q69.6438 1.62074 70.1534 1.62074Q70.6705 1.62074 71.0669 1.8022Q71.4634 1.98367 71.6921 2.30185Q71.9208 2.62003 71.9308 3.0277L71.19 3.0277ZM81.5401 1.69034L81.5401 6.78125L80.772 6.78125L80.772 1.69034L81.5401 1.69034ZM89.7678 1.69034L89.7678 6.78125L89.0618 6.78125L86.4741 3.04759L86.4268 3.04759L86.4268 6.78125L85.6587 6.78125L85.6587 1.69034L86.3697 1.69034L88.9599 5.42898L89.0071 5.42898L89.0071 1.69034L89.7678 1.69034ZM93.6353 2.35156L93.6353 1.69034L97.5753 1.69034L97.5753 2.35156L95.9869 2.35156L95.9869 6.78125L95.2212 6.78125L95.2212 2.35156L93.6353 2.35156ZM101.443 6.78125L101.443 1.69034L104.635 1.69034L104.635 2.35156L102.211 2.35156L102.211 3.9027L104.468 3.9027L104.468 4.56143L102.211 4.56143L102.211 6.12003L104.664 6.12003L104.664 6.78125L101.443 6.78125ZM112.109 3.29865Q111.965 2.84624 111.628 2.58398Q111.291 2.32173 110.784 2.32173Q110.354 2.32173 110.009 2.54297Q109.663 2.7642 109.463 3.19052Q109.263 3.61683 109.263 4.23331Q109.263 4.85227 109.464 5.27983Q109.665 5.70739 110.016 5.92862Q110.366 6.14986 110.814 6.14986Q111.425 6.14986 111.801 5.78817Q112.176 5.42649 112.189 4.81001L110.931 4.81001L110.931 4.17614L112.932 4.17614L112.932 4.75533Q112.932 5.39666 112.66 5.86772Q112.387 6.33878 111.91 6.59482Q111.433 6.85085 110.814 6.85085Q110.125 6.85085 109.603 6.53391Q109.081 6.21697 108.79 5.63033Q108.5 5.04368 108.5 4.23828Q108.5 3.42543 108.795 2.83878Q109.091 2.25213 109.606 1.93643Q110.12 1.62074 110.779 1.62074Q111.328 1.62074 111.776 1.83327Q112.223 2.04581 112.518 2.42365Q112.813 2.80149 112.897 3.29865L112.109 3.29865ZM116.906 6.78125L116.906 1.69034L118.721 1.69034Q119.313 1.69034 119.703 1.89418Q120.093 2.09801 120.288 2.45721Q120.483 2.81641 120.483 3.28622Q120.483 3.7983 120.251 4.17241Q120.018 4.54652 119.549 4.72053L120.677 6.78125L119.802 6.78125L118.768 4.85476Q118.743 4.85476 118.718 4.85476L117.674 4.85476L117.674 6.78125L116.906 6.78125ZM117.674 4.19354L118.649 4.19354Q119.211 4.19354 119.46 3.9549Q119.71 3.71626 119.71 3.28622Q119.71 2.85369 119.459 2.60138Q119.208 2.34908 118.639 2.34908L117.674 2.34908L117.674 4.19354ZM124.851 6.78125L124.035 6.78125L125.867 1.69034L126.755 1.69034L128.587 6.78125L127.771 6.78125L127.306 5.43395L125.318 5.43395L124.851 6.78125ZM125.542 4.78764L127.083 4.78764L126.332 2.61506L126.292 2.61506L125.542 4.78764ZM132.32 6.78125L132.32 1.69034L133.088 1.69034L133.088 6.12003L135.395 6.12003L135.395 6.78125L132.32 6.78125ZM139.27 6.78125L139.27 1.69034L142.462 1.69034L142.462 2.35156L140.038 2.35156L140.038 3.9027L142.295 3.9027L142.295 4.56143L140.038 4.56143L140.038 6.12003L142.492 6.12003L142.492 6.78125L139.27 6.78125ZM149.267 3.0277Q149.228 2.67472 148.939 2.47958Q148.651 2.28445 148.213 2.28445Q147.744 2.28445 147.468 2.49822Q147.192 2.712 147.192 3.03764Q147.192 3.28125 147.34 3.43413Q147.488 3.587 147.703 3.67401Q147.918 3.76101 148.117 3.81321L148.614 3.94247Q148.857 4.00213 149.113 4.10529Q149.369 4.20845 149.588 4.37376Q149.807 4.53906 149.942 4.78516Q150.078 5.03125 150.078 5.37429Q150.078 5.80433 149.855 6.1424Q149.633 6.48047 149.213 6.67312Q148.793 6.86577 148.194 6.86577Q147.338 6.86577 146.833 6.46555Q146.327 6.06534 146.289 5.37429L147.06 5.37429Q147.095 5.78942 147.42 5.99077Q147.746 6.19212 148.189 6.19212Q148.678 6.19212 148.998 5.96591Q149.317 5.7397 149.317 5.36683Q149.317 5.14063 149.189 4.99521Q149.061 4.84979 148.844 4.75657Q148.626 4.66335 148.353 4.59126L147.751 4.4272Q147.137 4.26065 146.782 3.9375Q146.426 3.61435 146.426 3.08239Q146.426 2.6424 146.665 2.31428Q146.903 1.98615 147.312 1.80344Q147.721 1.62074 148.231 1.62074Q148.748 1.62074 149.144 1.8022Q149.541 1.98367 149.77 2.30185Q149.998 2.62003 150.008 3.0277L149.267 3.0277Z" />
      </g>
    </g>
    <path d="M42.7402 11.2328L43.0063 45.5365" id="Línea" fill="none" fill-rule="evenodd" stroke="#144579" stroke-width="1" stroke-linecap="square" />
  </g>
</svg>